<svg xmlns="http://www.w3.org/2000/svg" xmlns:xlink="http://www.w3.org/1999/xlink" height="800px" width="800px" version="1.1" id="Capa_1" viewBox="0 0 53 53" xml:space="preserve">
<path style="fill: #dedede;" d="M26.5,9c-8.837,0-16,7.164-16,16c0,7.089,4.615,13.091,11,15.192V50h2v3h6v-3h2v-9.808  c6.385-2.101,11-8.103,11-15.192C42.5,16.164,35.337,9,26.5,9z"/>
<path style="fill: #838383;" d="M15.5,26c-0.553,0-1-0.447-1-1c0-6.617,5.383-12,12-12c0.553,0,1,0.447,1,1s-0.447,1-1,1  c-5.514,0-10,4.486-10,10C16.5,25.553,16.053,26,15.5,26z"/>
<polygon style="fill: #353535;" points="21.5,43 21.5,50 23.5,50 23.5,53 29.5,53 29.5,50 31.5,50 31.5,43 "/>
</svg>